<svg width="80" height="19" viewBox="0 0 80 19" fill="none" xmlns="http://www.w3.org/2000/svg">
<g clip-path="url(#clip0_588_194)">
<path d="M24.2123 0.295898H20.8916V3.61663H24.2123V0.295898Z" fill="url(#paint0_linear_588_194)"/>
<path d="M80.0004 11.8955H76.6797V15.2163H80.0004V11.8955Z" fill="url(#paint1_linear_588_194)"/>
<path d="M59.6322 7.24805H56.3115V10.5688H59.6322V7.24805Z" fill="url(#paint2_linear_588_194)"/>
<path d="M70.01 12.029H64.8031L63.8255 15.1957H60L65.5044 0H69.3299L74.8131 15.1957H70.9876L70.01 12.029ZM65.6744 9.1174H69.1599L67.4384 3.50669H67.3959L65.6744 9.1174Z" fill="white"/>
<path d="M49.1064 13.0063C50.2753 13.0063 50.8279 12.4537 51.0404 11.9224H54.4196C53.8245 14.1114 52.1243 15.5566 49.1702 15.5566C45.5572 15.5566 43.3682 13.1763 43.3682 9.77585C43.3682 6.46043 45.5147 3.99512 48.9789 3.99512C52.6982 3.99512 54.5896 6.71546 54.5896 10.6685H46.7687C46.7687 12.1987 47.895 13.0063 49.1064 13.0063ZM48.9789 6.33291C47.6825 6.33291 46.7687 7.09801 46.7687 8.60695H51.1892C51.1892 7.09801 50.2753 6.33291 48.9789 6.33291Z" fill="white"/>
<path d="M38.6641 0.0214844H42.0645V15.2172H38.6641V0.0214844Z" fill="white"/>
<path d="M32.5502 3.99512C35.4406 3.99512 37.2896 6.2054 37.2896 9.77585C37.2896 13.3463 35.4406 15.5566 32.5502 15.5566C30.9775 15.5566 29.8299 14.7065 29.4048 14.1327H29.3623V18.9783H25.9619V4.33516H29.3623V5.41905H29.4048C29.8299 4.84522 30.9775 3.99512 32.5502 3.99512ZM31.6576 13.0063C33.039 13.0063 33.8891 11.9011 33.8891 9.77585C33.8891 7.65058 33.039 6.54544 31.6576 6.54544C30.2762 6.54544 29.4261 7.65058 29.4261 9.77585C29.4261 11.9011 30.2762 13.0063 31.6576 13.0063Z" fill="white"/>
<path d="M20.793 4.33496H24.1935V15.2163H20.793V4.33496Z" fill="white"/>
<path d="M18.6493 4.14453C18.9468 4.14453 19.2019 4.14453 19.5844 4.22954V7.20492H19.5419C17.7992 6.88613 15.9502 7.8425 15.9502 10.159V15.2172H12.5498V4.33581H15.9502V6.12103H15.9927C16.524 4.90963 17.4591 4.14453 18.6493 4.14453Z" fill="white"/>
<path d="M4.42056 15.2172V3.14563H0V0.0214844H12.6454V3.14563H8.24605V15.2172H4.42056Z" fill="white"/>
</g>
<defs>
<linearGradient id="paint0_linear_588_194" x1="19.2545" y1="1.97178" x2="24.2123" y2="1.96309" gradientUnits="userSpaceOnUse">
<stop stop-color="#E22323"/>
<stop offset="0.5" stop-color="#F06B28"/>
<stop offset="1" stop-color="#E96991"/>
</linearGradient>
<linearGradient id="paint1_linear_588_194" x1="75.0425" y1="13.5714" x2="80.0004" y2="13.5627" gradientUnits="userSpaceOnUse">
<stop stop-color="#E22323"/>
<stop offset="0.5" stop-color="#F06B28"/>
<stop offset="1" stop-color="#E96991"/>
</linearGradient>
<linearGradient id="paint2_linear_588_194" x1="54.6743" y1="8.92394" x2="59.6322" y2="8.91525" gradientUnits="userSpaceOnUse">
<stop stop-color="#E22323"/>
<stop offset="0.5" stop-color="#F06B28"/>
<stop offset="1" stop-color="#E96991"/>
</linearGradient>
<clipPath id="clip0_588_194">
<rect width="80" height="19" fill="white"/>
</clipPath>
</defs>
</svg>
