<svg width="24" height="24" viewBox="0 0 24 24" fill="none" xmlns="http://www.w3.org/2000/svg">
<g clip-path="url(#clip0_618_278)">
<path d="M20.4805 15.0162L13.6375 3.59019C13.4669 3.30869 13.2267 3.07593 12.9399 2.91439C12.6532 2.75284 12.3296 2.66797 12.0005 2.66797C11.6713 2.66797 11.3478 2.75284 11.061 2.91439C10.7743 3.07593 10.534 3.30869 10.3635 3.59019L2.25747 17.1252C2.09037 17.4146 2.00194 17.7427 2.00098 18.0768C2.00003 18.411 2.08658 18.7396 2.25202 19.0299C2.41746 19.3203 2.65604 19.5622 2.94401 19.7317C3.23199 19.9013 3.55933 19.9924 3.89347 19.9962H12.0005" stroke="white" stroke-width="2" stroke-linecap="round" stroke-linejoin="round"/>
<path d="M16 19H22" stroke="white" stroke-width="2" stroke-linecap="round" stroke-linejoin="round"/>
</g>
<defs>
<clipPath id="clip0_618_278">
<rect width="24" height="24" fill="white"/>
</clipPath>
</defs>
</svg>
